# xmcd
#
# Track frame offsets:
#	150
#	20409
#	36961
#	53840
#	70887
#	94662
#	109896
#	125981
#	145006
#	162503
#	180380
#	199042
#	217528
#
# Disc length: 3162 seconds
#
# Revision: 1
# Processed by: cddbd v1.5.2PL0 Copyright (c) Steve Scherf et al.
# Submitted via: audiograbber 1.83.01
#
DISCID=b40c580d
DTITLE=Tim Mcgraw - Let It Go
DYEAR=2007
DGENRE=
TTITLE0=Last Dollar (Fly Away)
TTITLE1=I'm Workin'
TTITLE2=Let It Go
TTITLE3=Whiskey And You
TTITLE4=Suspicions
TTITLE5=Kristofferson
TTITLE6=Put Your Lovin' On Me
TTITLE7=Nothin' To Die For
TTITLE8=Between The River And Me
TTITLE9=Train #10
TTITLE10=I Need You (with Faith Hill)
TTITLE11=Comin' Home
TTITLE12=Shotgun Rider
EXTD=
EXTT0=
EXTT1=
EXTT2=
EXTT3=
EXTT4=
EXTT5=
EXTT6=
EXTT7=
EXTT8=
EXTT9=
EXTT10=
EXTT11=
EXTT12=
PLAYORDER=
